<?xml version="1.0" ?><svg height="32" id="svg8" version="1.1" viewBox="0 0 8.4666665 8.4666669" width="32" xmlns="http://www.w3.org/2000/svg" xmlns:cc="http://creativecommons.org/ns#" xmlns:dc="http://purl.org/dc/elements/1.1/" xmlns:inkscape="http://www.inkscape.org/namespaces/inkscape" xmlns:rdf="http://www.w3.org/1999/02/22-rdf-syntax-ns#" xmlns:sodipodi="http://sodipodi.sourceforge.net/DTD/sodipodi-0.dtd" xmlns:svg="http://www.w3.org/2000/svg"><defs id="defs2"/><g id="layer1" transform="translate(0,-288.53332)"><path d="M 15.982422 0.98828125 C 14.337427 0.98828125 12.984396 2.3413266 12.984375 3.9863281 C 12.984369 4.8776981 13.390157 5.6756992 14.015625 6.2285156 C 10.002634 7.1340307 7 10.714284 7 15 C 7 17.877413 6.9691061 21.482984 5.3085938 25.091797 C 3.9933572 25.408793 2.9960938 26.594502 2.9960938 28 C 2.9960938 29.644699 4.3572505 31.003906 6.0019531 31.003906 L 25.998047 31.003906 C 27.64275 31.003906 29.003906 29.644699 29.003906 28 C 29.003906 26.594502 28.006643 25.408793 26.691406 25.091797 C 25.030887 21.482954 25 17.877413 25 15 C 25 10.70441 21.983987 7.1158758 17.957031 6.2207031 C 18.577529 5.6681006 18.978521 4.8736001 18.978516 3.9863281 C 18.978495 2.3413266 17.627417 0.98828125 15.982422 0.98828125 z M 15.982422 2.9882812 C 16.546546 2.9882812 16.986321 3.4221958 16.986328 3.9863281 C 16.986332 4.5504604 16.546554 4.9902344 15.982422 4.9902344 C 15.41829 4.9902344 14.984371 4.5504604 14.984375 3.9863281 C 14.984382 3.4221958 15.418298 2.9882812 15.982422 2.9882812 z M 16 8 C 19.895295 8 23 11.104706 23 15 C 23 17.655912 23.076891 21.267414 24.544922 25 L 7.4550781 25 C 8.9231128 21.267414 9 17.655912 9 15 C 9 11.104706 12.104703 8 16 8 z M 6.0019531 27.001953 L 25.998047 27.001953 C 26.569344 27.001953 27.003906 27.428687 27.003906 28 C 27.003906 28.571276 26.569344 29.003906 25.998047 29.003906 L 6.0019531 29.003906 C 5.430656 29.003906 4.9980469 28.571276 4.9980469 28 C 4.9980469 27.428687 5.430656 27.001953 6.0019531 27.001953 z " id="path893" style="color:#000000;font-style:normal;font-variant:normal;font-weight:normal;font-stretch:normal;font-size:medium;line-height:normal;font-family:sans-serif;font-variant-ligatures:normal;font-variant-position:normal;font-variant-caps:normal;font-variant-numeric:normal;font-variant-alternates:normal;font-feature-settings:normal;text-indent:0;text-align:start;text-decoration:none;text-decoration-line:none;text-decoration-style:solid;text-decoration-color:#000000;letter-spacing:normal;word-spacing:normal;text-transform:none;writing-mode:lr-tb;direction:ltr;text-orientation:mixed;dominant-baseline:auto;baseline-shift:baseline;text-anchor:start;white-space:normal;shape-padding:0;clip-rule:nonzero;display:inline;overflow:visible;visibility:visible;opacity:1;isolation:auto;mix-blend-mode:normal;color-interpolation:sRGB;color-interpolation-filters:linearRGB;solid-color:#000000;solid-opacity:1;vector-effect:none;fill:#000000;fill-opacity:1;fill-rule:nonzero;stroke:none;stroke-width:1.99999988;stroke-linecap:round;stroke-linejoin:round;stroke-miterlimit:4;stroke-dasharray:none;stroke-dashoffset:0;stroke-opacity:1;paint-order:stroke fill markers;color-rendering:auto;image-rendering:auto;shape-rendering:auto;text-rendering:auto;enable-background:accumulate" transform="matrix(0.26458333,0,0,0.26458333,0,288.53332)"/></g></svg>