<?xml version="1.0" standalone="no"?>
<!DOCTYPE svg PUBLIC "-//W3C//DTD SVG 20010904//EN"
 "http://www.w3.org/TR/2001/REC-SVG-20010904/DTD/svg10.dtd">
<svg version="1.0" xmlns="http://www.w3.org/2000/svg"
 width="960.000000pt" height="960.000000pt" viewBox="0 0 960.000000 960.000000"
 preserveAspectRatio="xMidYMid meet">
<metadata>
Created by potrace 1.15, written by Peter Selinger 2001-2017
</metadata>
<g transform="translate(0.000000,960.000000) scale(0.100000,-0.100000)"
fill="#000000" stroke="none">
<path d="M4625 9420 c-3 -6 -17 -10 -31 -10 -15 0 -24 -6 -24 -15 0 -18 4 -18
50 -5 25 7 43 7 63 -1 31 -13 36 -39 7 -39 -10 0 -23 -6 -27 -12 -9 -14 -27
-18 -85 -20 -23 0 -44 -8 -54 -19 -21 -23 -44 -25 -44 -4 0 20 -10 19 -35 -5
-24 -22 -55 -18 -55 7 0 8 4 11 10 8 5 -3 20 3 32 14 l22 21 -31 0 c-32 0 -56
-10 -108 -45 -17 -11 -39 -25 -50 -31 -11 -6 -21 -20 -23 -32 -2 -11 -9 -19
-15 -17 -36 11 -97 13 -97 3 0 -6 -3 -8 -6 -5 -4 4 1 18 10 32 13 20 22 24 43
19 19 -5 24 -4 19 5 -5 7 0 21 10 32 41 46 -22 26 -80 -25 -16 -14 -37 -26
-46 -26 -17 0 -35 -26 -31 -43 1 -4 -5 -7 -12 -5 -7 2 -30 -14 -51 -34 -31
-30 -42 -35 -53 -27 -11 9 -13 7 -11 -12 3 -20 -3 -25 -34 -33 -30 -8 -38 -14
-38 -33 0 -14 -6 -23 -15 -23 -10 0 -15 10 -15 33 l0 32 -15 -25 c-8 -14 -18
-35 -24 -46 -5 -12 -19 -24 -30 -27 -12 -3 -21 -12 -21 -21 0 -9 -7 -16 -15
-16 -8 0 -15 -5 -15 -12 0 -19 -44 -78 -62 -84 -26 -8 -24 -54 2 -54 13 0 20
-7 20 -20 0 -14 -9 -21 -36 -26 -34 -6 -35 -8 -30 -39 5 -22 2 -36 -9 -45 -12
-10 -16 -9 -21 3 -3 9 -3 21 1 27 7 11 -17 40 -35 40 -7 0 -9 8 -5 21 5 15 4
19 -4 15 -6 -4 -11 -19 -11 -34 -1 -23 -2 -25 -11 -9 -16 27 -29 20 -29 -17 0
-19 -5 -38 -10 -41 -6 -3 -8 -16 -4 -29 6 -27 -12 -79 -26 -71 -10 6 -14 -12
-10 -52 1 -13 -7 -27 -19 -35 -16 -9 -21 -23 -21 -52 0 -37 1 -39 15 -20 14
18 14 18 16 -11 1 -16 0 -38 -1 -48 -1 -10 6 -27 16 -38 23 -26 11 -36 -14
-11 -11 11 -23 18 -25 15 -3 -2 -8 10 -12 27 -4 17 -13 34 -21 37 -8 3 -11 9
-8 14 3 5 -5 19 -17 31 l-22 23 6 -43 c3 -24 12 -51 21 -61 17 -19 25 -57 29
-139 2 -45 5 -52 19 -48 10 2 21 0 24 -5 3 -5 13 -8 22 -7 9 2 18 -5 20 -16 3
-14 0 -17 -12 -12 -9 3 -23 9 -31 12 -22 9 -19 -22 6 -57 16 -23 17 -29 5 -29
-8 0 -18 5 -22 11 -3 6 -16 8 -29 5 -15 -4 -28 1 -40 14 -10 11 -22 17 -26 14
-5 -3 -9 2 -9 10 0 9 -4 16 -9 16 -5 0 -9 -16 -8 -35 1 -19 5 -35 10 -35 4 0
5 5 2 10 -3 6 -1 10 5 10 16 0 59 -52 60 -72 0 -9 5 -20 10 -23 6 -4 8 -11 4
-16 -3 -5 -9 -7 -13 -5 -4 3 -19 -6 -34 -19 -14 -14 -36 -25 -49 -25 -33 1
-61 -5 -76 -14 -6 -4 -16 -5 -21 -1 -5 3 -13 0 -17 -6 -4 -8 -9 -7 -15 2 -8
12 -10 12 -18 0 -5 -8 -7 -20 -4 -28 3 -9 -3 -13 -21 -13 -15 0 -30 -8 -36
-20 -6 -11 -17 -20 -25 -20 -8 0 -15 -6 -15 -14 0 -8 -10 -16 -22 -18 -13 -2
-22 -9 -20 -16 1 -7 -5 -15 -13 -18 -8 -3 -12 -10 -9 -15 3 -5 -6 -9 -20 -9
-30 0 -32 -5 -11 -26 23 -23 20 -47 -4 -34 -11 6 -22 6 -25 1 -3 -5 4 -11 15
-14 17 -5 20 -11 15 -31 -5 -20 -3 -24 8 -20 12 5 14 -4 9 -53 -3 -32 -9 -62
-14 -67 -5 -6 -9 -19 -9 -30 1 -20 1 -20 13 2 9 16 16 19 24 11 7 -7 12 -1 17
22 7 38 45 101 55 94 5 -2 13 6 18 18 6 14 30 29 62 41 54 19 68 36 26 31 -36
-3 -31 8 14 33 41 23 71 28 71 12 0 -5 -4 -10 -10 -10 -5 0 -10 -7 -10 -15 0
-8 -4 -15 -10 -15 -5 0 -10 -11 -10 -25 0 -14 -6 -25 -12 -25 -7 0 -24 -12
-38 -26 -13 -15 -26 -21 -28 -15 -5 15 -22 4 -22 -14 0 -15 -37 -74 -70 -113
-11 -13 -18 -28 -14 -33 3 -5 -2 -9 -12 -9 -13 0 -14 -3 -5 -14 15 -18 -3 -52
-31 -59 -10 -3 -18 -9 -17 -14 3 -9 -9 -57 -22 -93 -5 -14 -11 -104 -13 -200
-4 -121 -11 -202 -24 -263 -11 -48 -16 -89 -12 -92 15 -9 32 -254 27 -379 -4
-104 -9 -131 -23 -147 -13 -15 -15 -22 -6 -28 15 -9 2 -62 -19 -72 -7 -4 -34
-12 -59 -19 -25 -6 -65 -17 -90 -25 -25 -7 -64 -18 -87 -24 -33 -9 -43 -17
-47 -39 -12 -53 -25 -178 -26 -233 0 -53 2 -57 29 -69 74 -30 113 -119 109
-247 -2 -40 -6 -73 -10 -73 -5 0 -8 -22 -8 -50 0 -27 -6 -61 -12 -76 -10 -22
-10 -28 0 -32 7 -2 12 -21 12 -43 0 -22 6 -52 13 -67 24 -50 40 -133 28 -145
-13 -13 -15 -47 -2 -47 5 0 11 6 14 13 2 6 5 -6 5 -28 1 -66 13 -169 22 -190
5 -11 11 -36 13 -55 7 -46 11 -62 21 -78 4 -7 9 -32 11 -55 2 -23 8 -41 13
-40 10 2 25 -38 26 -69 1 -10 4 -17 7 -15 12 4 47 -48 40 -58 -14 -18 -30 -75
-21 -75 4 0 10 6 13 13 4 9 7 9 18 -1 12 -11 12 -14 -1 -22 -12 -8 -9 -15 17
-39 33 -30 42 -51 22 -51 -8 0 -8 -5 1 -15 7 -8 15 -15 19 -15 9 0 7 63 -2 77
-4 6 -4 32 -1 57 5 33 11 46 23 46 12 0 10 4 -6 15 -16 11 -22 29 -26 72 -8
90 -11 108 -21 114 -4 4 -3 16 3 27 12 22 13 65 7 190 -2 45 -2 82 0 82 11 0
99 -45 102 -52 2 -4 17 -5 33 -1 18 3 29 1 29 -6 0 -6 6 -11 14 -11 8 0 18 -5
21 -11 4 -6 -2 -9 -17 -8 -41 4 -56 -1 -60 -19 -5 -19 11 -41 28 -35 6 2 16
-8 24 -22 7 -14 20 -25 28 -25 12 0 12 -3 2 -15 -8 -9 -22 -12 -41 -8 -36 7
-36 2 -4 -33 16 -17 23 -34 19 -46 -3 -10 -1 -18 5 -18 6 0 11 -11 11 -24 0
-14 4 -27 9 -30 17 -11 104 7 123 26 10 10 18 14 18 8 0 -20 -38 -48 -61 -45
-13 1 -16 0 -6 -2 18 -5 24 -23 7 -23 -5 0 -10 -11 -10 -24 0 -20 4 -24 21
-21 15 3 23 -2 26 -15 6 -24 21 -26 29 -5 8 19 74 16 74 -3 0 -10 -5 -10 -20
-2 -17 9 -20 8 -20 -10 0 -12 -4 -29 -9 -39 -8 -14 -5 -17 17 -19 44 -4 55
-44 14 -50 -17 -3 -20 0 -15 14 4 12 2 15 -8 12 -7 -2 -14 -19 -15 -36 -2 -39
30 -55 51 -25 12 16 13 13 12 -29 -1 -25 -5 -41 -9 -35 -4 6 -10 8 -14 4 -4
-4 -12 -3 -18 2 -7 5 -18 1 -30 -10 -18 -17 -18 -18 2 -13 26 7 62 -43 62 -85
0 -32 -6 -36 -35 -25 -15 6 -15 8 0 24 10 11 12 20 7 24 -14 8 -42 -4 -42 -18
0 -18 40 -57 51 -51 5 4 9 -3 9 -14 0 -23 25 -29 33 -8 4 8 6 7 6 -4 1 -8 -6
-24 -14 -35 -13 -17 -14 -17 -15 -1 0 9 -4 17 -10 17 -5 0 -10 7 -10 15 0 17
-16 20 -25 5 -3 -5 -1 -10 4 -10 6 0 11 -7 11 -15 0 -8 5 -15 10 -15 6 0 10
-4 10 -10 0 -15 -16 -12 -34 5 -16 16 -29 5 -21 -17 3 -8 17 -14 33 -13 15 2
19 0 10 -2 -21 -5 -24 -23 -5 -23 20 0 51 -37 38 -45 -6 -3 -11 0 -11 7 0 7
-11 18 -25 24 -19 9 -28 9 -44 -3 -12 -8 -21 -20 -21 -27 0 -7 -11 -22 -25
-34 -14 -12 -25 -31 -25 -43 0 -18 -4 -20 -26 -15 -24 6 -25 6 -10 -9 9 -9 16
-21 16 -26 0 -5 8 -9 18 -9 10 0 23 -5 30 -12 17 -17 15 -58 -3 -58 -8 0 -15
4 -15 10 0 5 -7 7 -16 3 -10 -4 -15 -1 -14 8 5 31 -1 49 -15 49 -19 0 -31 -46
-15 -65 13 -15 5 -39 -10 -30 -5 3 -15 -3 -21 -14 -7 -10 -19 -17 -27 -14 -18
7 -33 -16 -26 -39 3 -12 0 -18 -10 -18 -9 0 -16 -6 -16 -14 0 -9 7 -12 20 -9
15 4 20 0 20 -15 0 -19 5 -20 74 -16 68 3 74 2 79 -17 6 -24 -1 -49 -14 -49
-5 0 -12 12 -15 26 -5 20 -11 24 -28 20 -11 -3 -27 -6 -34 -6 -9 0 -10 -5 -2
-19 5 -11 10 -33 10 -50 0 -38 17 -84 29 -76 13 7 20 -6 25 -48 4 -26 1 -35
-8 -31 -8 3 -12 -7 -13 -31 -1 -39 2 -42 24 -19 9 8 21 13 29 10 9 -3 14 6 16
31 2 25 8 37 21 39 9 1 17 -4 17 -12 0 -8 -4 -13 -9 -11 -5 1 -9 -2 -9 -8 -1
-5 7 -8 16 -6 15 3 15 0 -2 -18 -14 -16 -16 -21 -5 -21 9 0 10 -3 3 -8 -6 -4
-11 -24 -10 -44 1 -37 9 -48 21 -28 3 5 23 9 45 7 28 -1 36 -5 28 -14 -13 -17
-6 -55 12 -61 13 -5 13 -3 1 11 -11 15 -11 17 2 17 8 0 20 -6 26 -14 10 -11 8
-16 -7 -20 -32 -10 -52 4 -52 35 0 22 -5 29 -20 29 -11 0 -20 -4 -20 -10 0 -5
6 -10 14 -10 7 0 16 -13 19 -30 5 -22 14 -31 34 -36 30 -8 52 -30 52 -54 1
-10 -5 -8 -17 8 -9 12 -27 24 -40 27 -17 3 -22 -1 -22 -18 0 -18 2 -19 10 -7
8 13 13 11 32 -11 13 -15 31 -29 41 -32 10 -4 17 -16 17 -32 0 -16 6 -25 15
-25 22 0 18 -17 -5 -23 -11 -3 -20 -11 -19 -19 0 -10 2 -10 6 0 7 17 42 15 49
-3 4 -8 14 -15 23 -15 14 -1 14 -2 -2 -11 -9 -6 -27 -7 -38 -4 -21 7 -21 7 1
-15 12 -12 28 -19 36 -16 16 6 19 -10 3 -19 -7 -5 -8 -27 -5 -59 3 -28 3 -46
0 -39 -3 8 -16 10 -34 6 -25 -5 -30 -2 -36 21 -6 25 -24 37 -24 15 0 -17 30
-43 64 -56 26 -10 28 -12 9 -12 -13 -1 -23 -3 -23 -6 0 -12 40 -84 50 -90 5
-3 17 -21 25 -39 9 -18 25 -43 35 -54 11 -12 20 -24 20 -28 0 -8 5 -14 84 -96
30 -32 61 -58 67 -58 15 0 79 -71 79 -87 0 -7 5 -13 10 -13 6 0 15 -12 21 -27
7 -20 13 -23 21 -15 19 19 31 14 25 -9 -3 -12 -1 -19 6 -16 14 4 48 -24 41
-35 -3 -4 -21 -8 -40 -8 -22 0 -37 -6 -41 -15 -8 -23 5 -31 27 -18 15 10 19 9
24 -3 3 -8 10 -13 15 -10 10 6 33 -49 24 -57 -2 -3 -17 2 -33 11 -37 21 -45
12 -29 -32 10 -27 19 -36 36 -36 13 0 23 -4 23 -10 0 -5 -4 -10 -10 -10 -5 0
-7 -6 -4 -14 3 -8 1 -17 -5 -21 -7 -3 -11 2 -11 14 0 12 -3 21 -7 22 -81 6
-80 6 -75 -13 2 -10 -1 -18 -7 -18 -6 0 -11 5 -11 10 0 6 -5 10 -11 10 -6 0
-1 -14 11 -30 26 -36 43 -39 34 -7 -5 21 -2 24 25 25 36 1 40 -10 12 -29 -29
-21 -31 -53 -4 -57 20 -3 21 -6 12 -24 -6 -11 -8 -30 -5 -43 3 -13 1 -27 -4
-30 -8 -5 -7 -11 0 -20 7 -8 9 -19 5 -25 -5 -8 1 -10 15 -8 28 4 34 -11 15
-36 -10 -13 -19 -16 -32 -10 -16 7 -16 8 5 11 27 5 29 23 3 23 -11 0 -26 8
-33 18 -7 10 -20 21 -28 24 -10 4 -15 17 -14 41 1 23 -3 38 -12 41 -19 7 -17
24 4 29 9 2 6 3 -8 1 -28 -3 -67 20 -51 31 6 3 11 14 11 23 -1 12 -5 10 -15
-8 -8 -15 -10 -29 -4 -34 14 -15 11 -46 -6 -46 -8 0 -15 7 -15 15 0 8 -7 15
-17 15 -15 0 -15 -1 1 -19 10 -11 14 -25 10 -36 -6 -15 -10 -12 -24 15 l-17
33 -7 -28 c-5 -19 -2 -30 9 -39 15 -11 16 -13 1 -25 -10 -8 -14 -21 -11 -32 8
-23 -4 -25 -20 -2 -10 13 -11 11 -8 -18 3 -30 2 -31 -7 -11 -5 13 -14 20 -20
17 -5 -3 -10 3 -10 14 0 12 5 21 10 21 6 0 10 9 10 19 0 11 5 23 10 26 6 3 10
20 10 37 0 16 8 42 19 56 10 15 22 38 26 52 4 14 15 36 24 50 22 33 42 80 34
80 -11 0 -32 -35 -33 -52 0 -10 -7 -18 -15 -18 -8 0 -15 -5 -15 -11 0 -6 -7
-17 -15 -25 -8 -8 -12 -21 -9 -29 4 -9 0 -15 -10 -15 -10 0 -13 -6 -9 -16 4
-10 -1 -17 -15 -20 -14 -4 -18 -12 -15 -25 5 -17 2 -19 -19 -14 -16 4 -29 1
-38 -10 -12 -15 -11 -16 13 -10 21 6 27 4 27 -9 0 -9 -7 -16 -15 -16 -9 0 -14
-8 -12 -23 2 -18 -2 -21 -23 -19 -20 2 -22 1 -10 -7 12 -9 13 -14 3 -31 -7
-11 -13 -27 -13 -36 0 -10 -5 -14 -15 -11 -11 5 -13 0 -8 -23 5 -26 3 -30 -18
-31 -13 0 -18 -3 -11 -6 6 -2 12 -11 12 -18 0 -9 -9 -11 -34 -5 -25 5 -39 3
-57 -11 -13 -10 -20 -19 -15 -19 5 0 3 -6 -3 -14 -6 -7 -9 -21 -5 -30 4 -11 1
-16 -10 -16 -9 0 -16 -7 -16 -15 0 -8 -5 -14 -11 -13 -6 2 -13 -8 -15 -21 -3
-13 -16 -34 -29 -47 -28 -26 -29 -28 -15 -54 7 -13 6 -19 -4 -23 -8 -3 -17 1
-20 9 -4 11 -12 9 -36 -12 -35 -31 -39 -54 -10 -54 11 0 20 -4 20 -9 0 -5 -9
-11 -20 -14 -11 -3 -20 -1 -20 4 0 5 -4 9 -10 9 -5 0 -10 -10 -10 -23 0 -13
-9 -33 -20 -45 -11 -12 -20 -33 -20 -47 0 -14 -4 -25 -10 -25 -5 0 -10 -12
-10 -26 0 -15 -4 -23 -10 -19 -6 4 -10 14 -9 23 3 31 -1 36 -15 17 -12 -17
-15 -17 -35 -3 -14 10 -18 18 -12 23 6 3 11 15 11 26 0 10 4 19 9 19 5 0 13
10 17 23 4 12 12 26 18 30 7 6 5 7 -5 4 -9 -3 -22 0 -29 6 -10 10 -11 6 -8
-16 3 -16 0 -31 -7 -35 -6 -4 -16 -15 -21 -25 -9 -15 -12 -16 -29 -2 -20 15
-20 15 0 27 19 11 18 12 -9 19 -28 8 -56 -7 -56 -29 0 -6 -7 -13 -16 -16 -24
-9 -31 -7 -14 5 11 8 12 12 3 16 -7 2 -13 13 -13 24 0 10 -6 19 -12 19 -9 0
-10 3 -2 8 6 4 14 19 17 34 4 15 14 33 22 42 8 8 15 17 15 21 0 3 20 31 45 62
25 30 45 50 45 44 0 -6 5 -11 11 -11 6 0 8 7 5 16 -7 19 20 54 41 54 8 0 11 5
8 11 -4 6 1 19 11 29 29 30 44 48 44 57 0 12 46 53 59 53 6 0 11 5 11 10 0 6
7 10 15 10 8 0 15 9 15 21 0 40 18 59 50 52 19 -3 30 -1 30 6 0 6 -7 11 -16
11 -13 0 -12 5 5 27 12 14 19 28 17 31 -3 2 -29 -9 -58 -25 -39 -20 -58 -38
-71 -67 -10 -21 -27 -40 -38 -43 -10 -3 -19 -11 -19 -18 0 -7 -12 -20 -26 -30
-40 -26 -65 -47 -98 -83 -16 -17 -36 -32 -43 -32 -7 0 -13 -6 -13 -13 0 -17
-48 -59 -62 -55 -6 2 5 19 23 39 48 49 72 88 65 106 -4 11 -10 12 -19 5 -6 -5
-30 -15 -52 -22 -64 -21 -116 -60 -110 -81 4 -11 2 -19 -4 -19 -6 0 -11 5 -11
10 0 6 -5 10 -11 10 -8 0 -8 -5 1 -15 10 -12 8 -18 -11 -35 -13 -10 -30 -19
-36 -20 -7 0 -18 -9 -25 -20 -7 -11 -16 -20 -20 -20 -9 0 -116 -81 -161 -122
-31 -28 -47 -28 -47 -2 0 8 5 12 10 9 6 -3 10 0 10 8 0 7 -6 14 -12 14 -7 0
-20 2 -28 4 -8 2 -14 -3 -15 -11 0 -8 -7 -15 -15 -15 -8 -1 -14 -6 -12 -13 1
-7 -3 -12 -9 -12 -6 0 -8 -7 -5 -16 10 -27 -4 -35 -30 -18 -13 9 -28 14 -32
10 -3 -4 0 -11 7 -15 7 -5 10 -14 7 -20 -11 -18 -24 -13 -28 11 -4 30 -24 34
-38 7 -8 -14 -8 -19 -1 -15 7 5 11 -1 11 -14 0 -31 -24 -19 -28 13 -2 19 -9
27 -23 27 -10 0 -19 -4 -19 -8 0 -5 -20 -23 -45 -42 -25 -18 -43 -36 -40 -38
2 -2 23 10 47 27 34 26 44 29 46 16 2 -8 9 -14 15 -13 7 2 12 -2 12 -7 0 -6
-4 -9 -9 -7 -5 2 -6 -4 -3 -13 5 -10 0 -15 -14 -15 -12 0 -23 -8 -26 -20 -5
-19 -14 -24 -40 -21 -6 1 -14 -3 -18 -9 -3 -5 -15 -10 -25 -10 -13 0 -25 -12
-34 -35 -8 -19 -20 -35 -25 -35 -6 0 -11 -7 -11 -16 0 -11 -5 -14 -16 -10 -13
5 -15 2 -11 -13 3 -14 -2 -21 -19 -25 -14 -4 -26 -16 -30 -30 -4 -17 -11 -22
-24 -19 -14 4 -20 -3 -25 -25 -4 -21 -14 -32 -31 -36 -13 -4 -24 -11 -24 -16
0 -6 -20 -36 -45 -68 -25 -31 -45 -65 -45 -74 0 -10 -5 -18 -10 -18 -9 0 -40
-60 -71 -135 -20 -48 -50 -175 -56 -237 l-6 -68 3982 0 3981 0 0 184 c0 169
-1 184 -17 182 -10 0 -18 6 -18 14 0 8 8 14 18 14 12 -1 17 6 17 25 0 26 -16
51 -31 51 -8 0 -24 -59 -21 -72 3 -13 -36 -9 -40 4 -2 6 -18 11 -36 11 -26 0
-32 4 -32 23 0 15 -8 24 -26 28 -15 4 -29 5 -32 1 -3 -3 2 -5 11 -5 22 0 21
-9 -3 -40 -22 -29 -41 -19 -43 24 -2 33 -17 34 -17 2 0 -14 -5 -28 -10 -31 -6
-4 -8 -11 -5 -16 4 -5 1 -9 -5 -9 -6 0 -8 -4 -5 -10 3 -5 19 -7 35 -3 18 3 30
1 30 -5 0 -5 -6 -10 -12 -9 -45 1 -50 -3 -46 -38 4 -39 -4 -45 -24 -16 -11 16
-16 17 -31 6 -10 -7 -15 -19 -12 -28 5 -12 0 -13 -27 -8 -22 5 -32 12 -30 23
2 12 -6 15 -43 12 -45 -3 -45 -3 -39 24 9 37 13 42 30 42 11 0 13 6 9 21 -6
17 -4 20 12 16 10 -3 29 -8 43 -12 l25 -7 -23 17 c-20 15 -33 63 -13 50 5 -3
16 2 24 10 9 8 26 15 38 15 12 0 27 7 34 16 10 14 15 14 33 3 12 -7 25 -9 29
-5 4 5 2 11 -4 13 -21 7 -15 21 10 25 28 4 37 52 11 62 -13 5 -15 2 -11 -13 3
-13 -3 -23 -19 -31 -33 -18 -57 -6 -51 27 3 15 3 33 0 40 -8 21 -33 15 -33 -7
0 -18 -4 -20 -35 -14 -19 3 -35 2 -35 -2 0 -10 -60 -40 -72 -36 -5 1 -8 -2 -8
-8 0 -5 -7 -10 -15 -10 -8 0 -15 -5 -15 -11 0 -5 -4 -7 -10 -4 -5 3 -10 1 -10
-4 0 -6 -10 -11 -23 -11 -12 0 -33 -10 -47 -23 -14 -13 -32 -21 -39 -19 -10 3
-12 0 -8 -12 4 -9 4 -30 0 -47 -5 -28 -8 -30 -39 -25 -18 4 -35 3 -38 -2 -3
-5 -15 -8 -28 -7 -13 1 -26 -2 -29 -7 -7 -11 -59 1 -59 14 0 12 -60 36 -85 33
-41 -5 -75 -18 -75 -29 -1 -6 -7 4 -15 22 -8 18 -19 31 -23 28 -5 -3 -17 3
-27 14 -18 19 -17 20 4 20 12 0 24 7 27 15 4 8 15 15 25 15 10 0 20 3 20 8 8
51 7 62 -7 62 -8 0 -12 -4 -9 -10 4 -6 -5 -10 -19 -10 -14 0 -26 5 -26 10 0
13 -37 13 -45 1 -8 -14 -65 8 -65 24 0 15 -35 29 -50 20 -5 -3 -20 1 -32 8
-13 8 -40 18 -62 22 -31 5 -38 4 -33 -8 7 -19 -37 -14 -58 6 -18 18 -111 32
-153 22 -25 -5 -31 -3 -37 14 -6 19 -23 25 -62 24 -7 -1 -13 3 -13 7 0 4 -12
6 -27 4 -16 -2 -20 -1 -10 2 26 8 21 24 -9 24 -14 0 -23 -4 -19 -10 3 -5 -1
-10 -9 -10 -8 0 -18 5 -21 10 -13 20 -32 10 -28 -14 6 -27 -15 -45 -28 -25 -7
11 -11 10 -22 -5 -15 -20 -37 -14 -37 10 0 8 -10 14 -24 14 -14 0 -28 5 -31
10 -3 6 1 10 9 10 9 0 16 4 16 9 0 5 3 18 7 28 6 15 5 16 -9 5 -10 -8 -19 -9
-22 -3 -3 5 -16 7 -29 4 -16 -4 -9 6 28 41 28 25 53 46 57 46 3 0 5 6 3 13 -9
37 -18 57 -26 57 -5 0 -9 4 -9 9 0 5 13 3 30 -5 16 -9 40 -16 52 -17 13 -1 28
-8 34 -16 18 -23 97 6 104 39 4 18 12 25 30 26 42 2 135 41 138 58 2 9 8 13
14 10 7 -4 8 -2 4 4 -5 8 -13 9 -25 3 -13 -7 -20 -5 -29 9 -7 11 -18 16 -30
13 -15 -3 -21 2 -26 22 -4 14 -4 30 -1 35 4 6 1 10 -4 10 -6 0 -11 5 -11 10 0
6 7 10 15 10 8 0 15 -4 15 -9 0 -15 33 -22 42 -9 13 22 9 30 -12 23 -12 -4
-27 -2 -35 5 -25 20 -151 8 -258 -27 -29 -9 -61 -13 -82 -9 -22 4 -35 3 -35
-4 0 -26 -22 -5 -49 48 -27 53 -46 70 -94 86 -21 7 -13 26 11 26 9 0 24 5 32
10 13 8 13 11 1 19 -7 5 -10 14 -7 20 9 13 54 4 78 -16 10 -9 18 -10 22 -4 3
5 -5 18 -19 29 l-26 20 24 26 c14 14 28 26 32 26 10 0 55 49 55 60 0 5 16 21
35 37 37 31 56 85 35 98 -7 4 -13 -1 -17 -14 -6 -23 -23 -27 -41 -9 -17 17
-28 0 -14 -22 24 -39 -12 -61 -43 -26 -11 12 -65 43 -77 45 -24 4 -45 16 -60
35 l-18 21 0 -21 c0 -21 -2 -21 -37 -9 -21 7 -50 25 -65 39 -27 26 -48 34 -48
17 0 -21 87 -70 133 -75 4 -1 12 -8 18 -16 8 -11 12 -12 16 -2 6 14 33 16 33
2 0 -5 5 -10 11 -10 6 0 26 -12 45 -27 24 -18 34 -32 31 -45 -3 -10 -1 -18 4
-18 5 0 9 -7 9 -15 0 -22 -17 -18 -23 5 -3 11 -13 22 -24 26 -10 3 -25 9 -33
14 -44 27 -151 80 -160 80 -6 0 -26 17 -45 38 -20 20 -39 37 -43 38 -4 0 -19
6 -35 14 -15 7 -30 10 -34 7 -8 -8 20 -31 59 -49 15 -7 30 -18 33 -25 5 -15 1
-16 -23 -4 -45 23 -95 41 -99 37 -8 -8 7 -26 23 -26 8 0 14 -4 14 -10 0 -5 7
-10 15 -10 8 0 29 -13 47 -29 18 -15 49 -36 68 -46 20 -10 29 -20 22 -23 -13
-4 -78 23 -84 36 -5 10 -130 72 -147 72 -8 0 12 -16 45 -36 32 -19 66 -42 75
-50 8 -8 21 -14 27 -14 7 0 12 -5 12 -11 0 -16 -49 -2 -85 24 -47 34 -101 59
-120 55 -18 -3 21 -32 99 -73 55 -29 116 -84 93 -85 -9 0 -25 9 -34 20 -10 11
-23 20 -30 20 -8 0 -42 18 -77 40 -61 39 -96 50 -96 30 0 -5 30 -26 68 -46 37
-21 78 -46 91 -56 20 -15 21 -19 7 -24 -9 -4 -24 0 -34 9 -9 8 -27 18 -39 21
-13 4 -23 11 -23 16 0 5 -10 12 -22 15 -13 4 -33 16 -45 27 -21 20 -54 22 -60
3 -1 -5 20 -21 49 -35 28 -14 56 -30 62 -35 6 -6 27 -21 47 -33 20 -12 39 -32
42 -43 l6 -21 -22 20 c-12 11 -41 28 -64 37 -24 10 -43 21 -43 26 0 5 -5 9
-12 9 -6 0 -19 6 -27 14 -19 16 -81 31 -81 19 0 -8 49 -41 85 -56 11 -4 23
-15 28 -23 4 -8 15 -14 22 -14 8 0 15 -4 15 -9 0 -5 9 -13 21 -16 11 -4 18 -9
16 -12 -10 -10 -83 22 -112 49 -17 15 -38 28 -47 28 -9 0 -20 4 -23 10 -8 12
-55 13 -55 1 0 -8 25 -26 109 -77 35 -22 52 -44 32 -44 -6 0 -25 12 -43 27
-62 52 -138 82 -138 54 0 -11 67 -65 95 -76 12 -4 15 -9 8 -12 -6 -2 -30 7
-53 22 -44 28 -100 43 -100 28 0 -5 9 -19 20 -31 16 -17 17 -22 6 -22 -8 0
-18 5 -21 10 -8 13 -62 13 -69 1 -4 -5 6 -19 21 -30 20 -15 22 -19 8 -14 -11
3 -23 11 -26 16 -9 13 -38 1 -45 -18 -4 -9 1 -22 12 -30 18 -13 18 -14 2 -15
-10 0 -18 4 -18 8 0 5 -13 9 -30 9 -22 0 -30 -5 -30 -18 0 -9 -11 -24 -25 -33
-28 -18 -24 -41 8 -50 25 -6 94 -66 77 -66 -7 0 -26 11 -42 26 -18 15 -37 23
-47 19 -8 -3 -12 -3 -8 1 4 4 -2 14 -13 21 -16 12 -24 12 -35 3 -18 -15 -4
-46 23 -54 10 -4 29 -20 41 -37 l22 -30 -23 13 c-12 7 -28 21 -35 30 -22 28
-67 46 -93 36 -22 -8 -22 -9 -4 -30 19 -21 19 -21 -6 -13 -14 4 -27 7 -30 7
-26 1 -32 -4 -27 -23 4 -15 2 -19 -10 -15 -8 3 -19 6 -24 6 -19 0 -8 16 21 28
17 8 30 20 30 28 0 8 7 14 16 14 8 0 27 13 42 29 15 16 43 38 62 50 19 11 31
21 25 21 -5 0 1 7 13 16 12 8 22 24 22 34 0 22 -16 36 -22 18 -5 -13 -48 -19
-48 -6 0 4 -7 8 -15 8 -8 0 -15 5 -15 10 0 6 10 8 23 5 20 -5 22 -3 21 22 -3
39 -3 40 -13 24 -8 -12 -14 -12 -43 -1 -38 16 -67 40 -47 40 15 0 62 50 55 58
-3 3 -18 -1 -33 -8 -36 -17 -65 -18 -71 -1 -3 9 2 11 16 7 16 -5 19 -2 20 21
0 17 8 33 21 41 11 8 21 20 21 28 0 7 5 25 12 41 7 15 13 33 13 38 3 19 18 50
33 68 9 10 11 17 4 17 -6 0 -14 -4 -17 -10 -3 -5 -15 -10 -26 -10 -17 0 -18
-3 -7 -21 11 -17 10 -22 -6 -35 -11 -8 -26 -14 -34 -14 -11 0 -12 -3 -3 -14
17 -21 -1 -28 -39 -14 -29 10 -34 9 -50 -12 -15 -20 -18 -21 -23 -5 -11 27 -8
33 12 28 22 -6 39 15 18 23 -8 3 -20 23 -27 45 -9 26 -18 38 -27 35 -13 -5
-17 5 -14 32 1 6 -2 12 -7 12 -14 0 -34 -28 -28 -39 9 -14 -21 -22 -32 -8 -22
28 -21 34 3 30 20 -4 23 -2 19 14 -3 11 2 27 10 36 22 22 20 27 -11 27 l-28 1
24 19 c13 11 18 20 13 20 -6 0 -14 -4 -17 -10 -3 -5 -16 -10 -28 -10 -20 1
-21 2 -4 14 18 14 25 82 7 71 -6 -3 -10 -1 -10 4 0 14 13 14 28 -1 6 -6 15 -9
18 -5 10 9 -16 37 -34 37 -12 0 -11 5 6 20 28 26 28 37 0 36 -19 -1 -24 5 -26
32 -2 17 -7 32 -11 32 -4 0 -16 15 -26 34 -11 19 -22 33 -25 31 -3 -2 -12 1
-20 6 -12 7 -12 11 -3 17 9 6 10 17 2 46 -7 27 -7 41 1 51 6 7 11 36 12 64 0
30 5 55 14 62 18 15 18 43 0 36 -19 -8 -28 3 -15 19 7 9 6 19 -5 37 -15 22
-15 24 2 22 9 0 22 -4 29 -8 7 -5 12 9 15 43 2 30 -1 50 -7 50 -6 0 -19 14
-28 30 -14 22 -15 30 -5 30 22 0 40 39 33 71 -4 17 -8 52 -9 79 -2 42 0 49 18
55 13 4 16 8 9 12 -19 7 -16 40 3 47 9 4 18 5 19 4 10 -16 35 -79 35 -90 0
-22 79 -171 95 -181 8 -4 15 -12 15 -17 0 -6 10 -22 23 -37 58 -70 94 -109
116 -128 13 -11 31 -27 40 -35 9 -8 46 -36 82 -62 37 -26 69 -53 72 -60 2 -8
29 -26 58 -42 87 -45 118 -63 132 -75 8 -6 17 -8 20 -4 4 3 15 -1 24 -9 10 -8
52 -31 93 -51 79 -37 121 -41 227 -22 40 7 48 5 117 -43 41 -27 96 -58 123
-68 26 -10 59 -26 72 -36 13 -10 37 -18 53 -18 61 0 176 -81 192 -137 4 -12
18 -28 30 -35 100 -55 191 -98 207 -98 11 0 22 -7 25 -15 3 -8 25 -24 49 -35
24 -12 61 -35 82 -52 21 -16 47 -34 58 -39 11 -5 27 -13 35 -18 8 -5 29 -15
45 -22 17 -8 46 -29 65 -46 19 -18 43 -33 52 -33 9 0 38 -19 64 -41 47 -40 49
-41 106 -36 32 3 65 11 73 17 8 7 15 9 15 4 0 -4 5 -3 12 4 7 7 26 12 44 12
19 0 34 6 38 15 3 8 14 15 25 15 11 0 26 6 33 13 19 19 121 37 130 24 4 -6 10
1 13 16 8 31 20 35 29 10 5 -12 9 -14 18 -5 7 7 22 12 35 12 16 0 23 6 23 20
0 11 5 20 10 20 6 0 10 -5 10 -11 0 -6 7 -3 16 6 9 8 34 25 56 36 21 11 42 27
45 37 6 13 9 10 19 -13 8 -19 13 -23 14 -12 0 9 4 17 9 17 20 0 21 33 0 48
-12 9 -19 21 -16 32 3 13 0 17 -9 13 -8 -3 -14 1 -14 10 0 8 -8 18 -17 22 -17
6 -17 7 0 17 13 7 17 17 13 34 -6 22 -4 23 19 14 20 -7 25 -6 25 5 0 8 -5 15
-11 15 -13 0 -39 25 -39 38 0 6 6 13 13 15 9 4 9 6 0 6 -7 1 -13 8 -13 17 0
14 3 14 15 4 9 -8 15 -8 15 -2 0 6 2 17 5 24 4 9 -4 19 -20 26 -27 13 -34 32
-10 32 32 0 8 34 -25 35 -22 0 -23 142 -1 155 14 8 14 9 -1 10 -20 0 -24 16
-7 22 7 2 4 16 -9 37 -13 22 -19 46 -17 70 2 20 1 28 -2 19 -5 -19 -33 -25
-33 -8 0 6 9 19 20 30 25 25 25 36 2 42 -15 4 -21 22 -31 79 -14 87 -22 165
-22 197 1 12 -4 22 -10 22 -6 0 -9 6 -6 14 3 8 2 29 -3 48 -5 18 -13 69 -19
113 -5 44 -14 100 -19 125 -6 25 -13 72 -16 105 -3 33 -10 89 -16 125 -6 36
-17 115 -25 175 -26 198 -57 399 -66 435 -5 19 -11 62 -14 95 -2 33 -11 103
-19 155 -39 252 -44 286 -44 300 0 13 -13 90 -28 170 -3 14 -5 38 -4 53 0 16
-6 57 -14 90 -22 96 -36 177 -38 230 -1 26 -5 50 -10 53 -4 3 -5 16 -2 30 4
14 0 34 -8 47 -8 13 -12 35 -8 57 3 19 0 71 -7 115 -7 44 -15 108 -19 143 -4
34 -10 62 -14 62 -4 0 -7 12 -8 28 -1 90 -14 227 -21 236 -5 6 -12 43 -16 81
-10 99 -15 105 -80 105 -37 0 -55 -4 -55 -12 0 -10 -2 -10 -8 -1 -5 8 -41 12
-112 11 -58 0 -143 2 -190 5 -222 15 -535 21 -645 13 -27 -2 -66 0 -86 4 -31
6 -40 4 -55 -14 -10 -11 -17 -23 -15 -26 1 -2 -3 -6 -11 -9 -7 -2 -10 0 -6 4
4 5 2 15 -5 23 -8 10 -12 52 -13 121 0 97 2 109 25 146 14 22 29 43 34 46 4 3
9 75 10 160 2 128 -1 161 -16 198 -13 32 -16 56 -11 88 4 26 10 40 14 33 10
-17 64 35 57 54 -4 9 4 23 17 34 13 10 27 33 31 52 4 19 16 52 27 74 15 30 17
44 10 65 -6 14 -16 56 -22 94 -7 37 -16 70 -21 73 -20 12 5 115 33 135 5 3 0
17 -11 31 -14 17 -17 28 -10 35 14 14 -6 53 -26 53 -18 0 -18 -5 0 105 18 112
18 115 1 115 -11 0 -14 13 -13 53 2 45 -1 53 -20 62 -13 5 -23 13 -23 17 0 4
-6 5 -14 2 -7 -3 -17 3 -20 13 -4 10 -2 19 3 21 21 7 11 22 -14 22 -16 0 -25
6 -25 15 0 9 -10 15 -26 15 -19 0 -25 4 -20 15 3 9 0 15 -9 15 -9 0 -12 -6 -8
-16 4 -11 2 -15 -7 -12 -7 2 -15 14 -17 27 -3 20 0 22 26 18 22 -4 35 1 51 18
24 26 20 45 -11 45 -10 0 -19 5 -19 10 0 6 11 10 25 10 28 0 34 23 11 46 -8 7
-16 19 -18 25 -2 6 -19 13 -38 15 -41 5 -49 11 -24 20 58 19 75 31 84 58 8 24
7 33 -5 45 -13 14 -15 14 -15 -1 0 -9 -19 -25 -45 -37 -24 -11 -49 -30 -55
-41 -6 -11 -18 -20 -28 -20 -10 0 -13 3 -6 8 14 9 24 38 17 46 -3 3 -12 -2
-19 -12 -13 -16 -13 -16 -14 1 0 27 -50 23 -50 -4 0 -11 5 -17 10 -14 6 3 10
1 10 -6 0 -12 -29 -40 -66 -66 -20 -13 -40 -83 -23 -83 14 0 30 28 19 35 -9 6
39 55 54 55 14 0 -7 -29 -25 -33 -20 -5 -27 -27 -8 -27 8 0 8 -5 -1 -15 -7 -8
-10 -24 -7 -35 4 -15 0 -20 -14 -20 -10 0 -33 -9 -51 -20 -18 -11 -44 -20 -57
-20 -23 0 -24 2 -18 49 l6 49 -42 -6 c-38 -5 -41 -4 -28 11 11 15 10 18 -14
27 -15 6 -36 8 -47 5 -10 -4 -17 -2 -16 4 2 5 -6 17 -17 25 -19 15 -19 15 8
16 35 0 97 26 97 39 0 6 8 10 18 9 51 -4 71 2 74 25 2 17 9 21 29 19 26 -2 27
-1 19 34 -5 19 -10 37 -12 38 -9 8 -106 37 -127 39 -41 3 -38 27 4 27 59 0 31
16 -32 19 -36 1 -64 8 -75 18 -17 15 -18 15 -18 -5 0 -24 -18 -31 -77 -30 -44
1 -58 16 -23 25 11 3 20 10 20 15 0 6 -11 7 -24 4 -15 -4 -27 -1 -30 7 -5 9
-7 9 -12 0 -3 -7 -12 -13 -19 -13 -11 0 -11 6 1 30 9 17 20 30 25 30 5 0 9 7
9 15 0 8 10 20 23 27 21 12 27 14 55 17 6 0 12 7 12 15 0 9 -18 16 -51 20 -50
7 -59 10 -109 36 -17 9 -25 10 -28 1 -6 -18 -23 -13 -20 7 2 11 -4 18 -19 20
-22 3 -27 12 -24 38 1 7 -6 15 -15 18 -13 5 -15 2 -11 -13 5 -22 1 -21 -83 17
-25 11 -66 25 -93 32 -59 16 -70 29 -21 27 24 -1 39 3 42 12 3 10 -2 13 -21 9
-16 -3 -28 0 -31 8 -2 6 -18 15 -35 19 -30 6 -35 14 -32 45 2 13 1 13 -9 0 -9
-13 -12 -13 -21 3 -5 9 -16 17 -23 17 -7 0 -21 9 -31 20 -24 26 -33 16 -35
-40 -3 -72 -2 -76 15 -54 8 11 15 14 15 6 0 -9 4 -10 19 -1 10 7 27 9 37 5 17
-7 16 -9 -11 -24 -24 -13 -26 -17 -12 -20 9 -2 17 -11 17 -21 0 -9 5 -22 12
-29 9 -9 8 -12 -4 -12 -11 0 -15 -6 -11 -20 3 -12 0 -20 -7 -20 -9 0 -11 10
-7 30 4 18 2 32 -6 37 -14 8 -57 5 -72 -6 -14 -10 -65 -13 -65 -3 1 13 27 42
39 42 17 0 13 40 -5 47 -13 5 -13 8 -2 15 9 7 5 8 -14 5 -15 -2 -38 3 -52 13
l-26 16 21 23 c12 12 19 24 18 25 -9 7 -90 36 -97 34 -14 -3 -62 14 -62 23 0
5 9 9 21 9 25 0 59 17 59 30 0 6 -11 10 -25 10 -14 0 -28 7 -32 16 -3 8 -12
13 -19 10 -9 -3 -14 2 -14 14 0 16 -7 20 -30 20 -39 0 -40 24 -1 44 16 9 31
13 33 11 2 -3 17 11 32 30 32 40 46 44 46 15 0 -28 27 -36 49 -16 10 9 23 16
29 16 16 0 15 33 0 48 -7 7 -19 12 -28 12 -12 -1 -12 -2 3 -11 21 -12 22 -29
2 -29 -8 0 -15 5 -15 10 0 6 -10 10 -23 10 -16 0 -23 6 -23 19 0 12 9 22 23
26 30 7 32 45 2 45 -11 0 -27 7 -36 15 -18 18 -33 11 -33 -16 0 -10 -7 -19
-15 -19 -8 0 -15 5 -15 11 0 6 -9 8 -20 4 -12 -4 -27 -1 -35 5 -11 9 -15 9
-15 1 0 -6 -9 -11 -20 -11 -11 0 -20 -7 -20 -15 0 -9 -8 -18 -17 -22 -10 -3
-25 -15 -34 -26 -15 -19 -17 -19 -37 -1 -21 17 -21 18 -2 31 10 7 26 10 34 7
12 -4 15 -2 10 9 -5 14 -36 13 -59 -3 -5 -4 -28 -8 -50 -9 -21 -1 -45 -7 -52
-13 -9 -7 -17 -7 -27 1 -10 8 -16 9 -21 1 -9 -15 -25 -12 -25 4 0 8 -6 17 -12
19 -7 3 1 4 17 1 37 -6 51 3 60 37 6 24 4 26 -19 22 -15 -3 -29 -9 -32 -14
-10 -17 -24 -9 -24 15 0 29 -37 46 -52 25 -7 -11 -11 -11 -15 -1 -7 17 -33 15
-33 -3 0 -10 -11 -3 -29 17 -28 30 -31 32 -46 17 -13 -13 -21 -14 -41 -5 -13
6 -26 18 -29 26 -3 8 -18 24 -35 35 -16 11 -30 24 -30 29 0 4 11 1 25 -8 35
-23 31 -6 -6 27 -37 33 -39 33 -39 6 0 -18 -2 -19 -15 -9 -8 7 -12 16 -10 21
7 10 -52 42 -64 34 -5 -3 -11 0 -13 7 -5 15 -47 21 -62 9 -7 -6 -19 -2 -35 10
-13 10 -20 19 -15 19 4 0 3 5 -3 11 -15 15 -53 2 -53 -19 0 -12 -3 -13 -12 -4
-17 17 -28 15 -28 -4 0 -8 -4 -12 -10 -9 -16 10 -11 37 12 62 12 13 19 25 17
27 -10 10 -208 15 -214 6z m1235 -505 c-8 -15 -22 -25 -35 -25 -22 0 -60 -32
-50 -42 3 -2 -6 -11 -20 -18 -28 -15 -32 -28 -10 -36 31 -12 13 -22 -52 -29
-38 -4 -74 -12 -80 -17 -18 -15 -27 15 -13 41 9 17 8 22 -5 27 -12 5 -13 9 -4
20 15 19 49 18 78 -2 18 -13 25 -14 31 -4 5 7 15 10 25 6 14 -5 16 -2 12 14
-7 28 26 57 74 65 31 5 39 11 39 28 0 16 3 18 12 9 9 -9 8 -17 -2 -37z m-2955
-2992 c-4 -16 -11 -66 -15 -112 -5 -46 -13 -88 -17 -92 -4 -4 -27 4 -51 19
-42 27 -42 28 -36 72 3 25 12 57 20 71 17 35 61 69 86 69 17 0 19 -4 13 -27z
m4505 -203 c0 -10 6 -20 13 -23 9 -3 9 -8 1 -17 -9 -9 -8 -19 3 -40 14 -29 14
-29 33 -10 11 11 25 20 30 20 32 0 -10 49 -42 50 -22 0 -23 23 -3 40 8 7 15 9
15 5 0 -4 7 -2 15 5 12 10 15 10 15 0 0 -8 9 -11 28 -7 28 6 29 5 29 -46 1
-29 7 -85 14 -125 9 -56 17 -75 33 -84 28 -14 27 -13 20 -32 -3 -9 -12 -16
-20 -16 -8 0 -14 -10 -14 -26 0 -14 4 -23 10 -19 6 3 10 0 10 -9 0 -28 -12
-46 -31 -46 -11 0 -19 -7 -19 -17 0 -14 -2 -14 -20 2 -19 17 -21 17 -40 0 -17
-16 -20 -16 -20 -2 0 9 5 19 10 22 6 4 8 11 5 16 -4 5 -15 3 -28 -6 -27 -19
-67 -19 -103 0 -18 9 -23 15 -12 15 14 0 15 5 5 35 -8 29 -14 34 -30 29 -18
-6 -19 -3 -13 27 4 19 10 54 13 79 3 25 9 50 14 57 7 7 5 13 -3 16 -9 4 -5 12
14 27 17 13 25 28 23 40 -2 11 1 34 7 50 8 25 13 28 24 19 8 -6 14 -20 14 -29z
m-4375 -399 c4 -40 1 -53 -10 -58 -14 -5 -14 -8 -2 -27 18 -28 32 -100 18 -91
-6 3 -11 2 -11 -4 0 -5 5 -13 10 -16 7 -4 7 -13 0 -26 -6 -11 -8 -24 -4 -30
10 -17 35 27 27 48 -6 16 -5 16 10 4 21 -16 22 -41 3 -41 -7 0 -16 -9 -19 -20
-3 -14 -14 -20 -31 -20 -25 0 -31 -8 -27 -39 2 -7 -2 -10 -8 -7 -5 4 -12 2
-15 -3 -8 -12 30 -44 43 -36 6 3 11 1 11 -4 0 -6 -8 -12 -17 -12 -10 -1 -2 -4
17 -8 31 -5 34 -9 37 -44 l2 -38 -37 7 c-20 4 -50 15 -65 25 -29 17 -29 19
-32 111 -1 51 2 101 7 111 6 12 5 17 -4 17 -8 1 -6 6 6 15 10 7 15 18 11 24
-3 6 -1 11 4 11 6 0 11 9 11 21 0 26 29 130 41 145 5 6 6 14 3 17 -3 3 -3 11
1 17 11 17 14 8 20 -49z m4235 -141 c0 -5 16 -12 35 -16 19 -3 32 -10 30 -15
-3 -4 8 -15 25 -24 16 -8 30 -22 30 -29 0 -7 6 -19 14 -25 8 -6 16 -22 19 -34
44 -176 42 -158 29 -207 -5 -20 -5 -46 -1 -59 6 -15 5 -27 -5 -37 -8 -7 -16
-19 -19 -26 -3 -10 -8 -10 -16 -2 -8 7 -9 19 -3 35 11 29 4 149 -9 165 -5 7
-10 29 -11 50 -1 45 -30 78 -75 87 -73 15 -97 23 -85 31 9 5 9 12 1 27 -10 20
-5 54 13 77 12 14 28 16 28 2z m136 -3984 l27 -15 -26 -12 c-29 -13 -34 -24
-14 -32 6 -3 -5 -6 -25 -6 -21 -1 -38 -5 -38 -11 0 -5 -6 -7 -14 -4 -7 3 -16
-2 -20 -11 -3 -9 -10 -14 -15 -10 -5 3 -16 -4 -24 -15 -8 -12 -18 -20 -23 -18
-5 2 -11 -1 -13 -7 -6 -14 -47 -45 -59 -45 -5 0 -17 -9 -27 -20 -10 -11 -27
-20 -37 -20 -11 0 -22 -9 -25 -20 -3 -11 -10 -20 -16 -20 -5 0 -23 -14 -39
-30 -16 -17 -33 -28 -39 -24 -6 3 -17 -3 -25 -15 -9 -12 -26 -21 -41 -21 -21
0 -24 -4 -20 -21 4 -14 2 -19 -8 -15 -7 2 -16 -2 -19 -11 -4 -9 -14 -13 -26
-10 -15 4 -20 0 -20 -14 0 -25 -27 -36 -51 -21 -27 17 -32 15 -26 -9 3 -12 0
-22 -9 -26 -8 -3 -13 -12 -10 -20 6 -14 1 -17 -45 -27 -23 -5 -28 -2 -33 19
-7 29 -26 34 -26 8 0 -13 -3 -14 -8 -6 -5 7 -19 10 -35 8 -15 -3 -27 -1 -27 5
0 5 7 10 16 10 8 0 13 4 9 9 -3 5 9 11 27 13 26 2 32 7 30 23 -3 20 -2 20 13
1 8 -11 15 -34 15 -50 1 -27 2 -29 11 -12 9 15 13 16 20 5 7 -11 9 -10 9 4 0
10 8 17 19 17 14 0 17 6 13 25 -4 24 -22 36 -22 15 0 -5 -5 -10 -10 -10 -7 0
-7 7 0 20 6 11 15 18 20 15 17 -10 29 29 15 48 -12 17 -14 16 -34 -9 -12 -15
-21 -22 -21 -16 0 6 -7 9 -15 6 -22 -9 -19 2 8 28 13 13 35 24 50 26 21 2 26
-3 32 -29 6 -27 9 -29 17 -16 5 9 16 17 24 17 20 0 124 67 124 80 0 5 8 10 19
10 10 0 24 6 30 14 6 7 25 16 42 20 18 3 28 10 24 17 -4 6 2 13 15 16 12 3 19
11 16 18 -3 8 5 16 20 19 13 4 24 11 24 16 0 6 11 10 25 10 14 0 28 7 31 15 3
8 14 17 24 20 10 3 20 14 23 24 3 12 18 22 38 26 53 11 89 28 95 47 7 22 23
23 60 4z m-3604 -120 c2 -19 0 -45 -5 -58 -7 -19 -10 -20 -18 -8 -8 13 -10 13
-19 0 -20 -31 -7 -58 18 -37 13 10 14 9 10 -3 -2 -8 -20 -18 -39 -21 -25 -4
-30 -8 -18 -13 11 -5 15 -15 12 -27 -4 -15 -2 -18 11 -13 9 3 16 2 16 -3 0
-18 -11 -21 -41 -13 -25 7 -29 6 -29 -11 0 -16 5 -18 28 -13 l27 6 -22 -16
c-13 -10 -23 -23 -23 -31 0 -7 -6 -16 -12 -19 -7 -3 13 -5 44 -4 32 1 61 -1
65 -5 3 -4 15 -7 25 -7 10 0 18 -3 18 -7 0 -5 3 -18 6 -30 5 -17 2 -23 -10
-23 -9 0 -16 -7 -16 -15 0 -8 9 -15 20 -15 17 0 18 -3 8 -25 -16 -35 -3 -43
21 -14 16 19 20 20 21 8 0 -9 -7 -22 -15 -29 -13 -11 -13 -15 1 -41 11 -22 12
-29 2 -27 -7 2 -17 12 -21 22 -6 15 -10 17 -19 8 -7 -7 -20 -12 -31 -12 -10 0
-15 -4 -12 -10 3 -5 1 -10 -4 -10 -6 0 -11 4 -11 9 0 5 -8 11 -17 15 -10 3
-23 9 -30 12 -7 3 -13 -6 -15 -27 -2 -18 -9 -35 -17 -37 -10 -3 -12 1 -8 17 6
23 -7 38 -18 20 -4 -5 -13 -8 -21 -5 -8 3 -14 1 -14 -4 0 -6 -11 -10 -25 -10
-24 0 -25 3 -20 33 6 32 6 32 -36 34 -24 2 -46 -2 -50 -8 -4 -7 -12 -8 -19 -4
-8 5 -9 10 -1 18 13 13 14 28 2 25 -16 -5 -71 61 -65 77 3 8 1 15 -5 15 -6 0
-11 -4 -11 -10 0 -5 -5 -10 -11 -10 -6 0 -8 8 -5 18 4 12 -3 29 -20 47 -14 15
-31 50 -37 77 -8 32 -16 47 -24 43 -8 -3 -13 4 -13 19 0 14 -6 27 -12 29 -7 3
1 6 17 7 17 1 24 4 18 7 -18 7 -16 32 3 40 12 4 13 7 3 14 -23 14 -4 19 24 6
17 -8 25 -19 24 -32 -1 -11 3 -19 11 -18 6 2 12 -6 12 -18 0 -25 53 -80 72
-76 7 2 10 2 6 0 -15 -9 -7 -28 18 -47 19 -13 29 -15 37 -7 6 6 24 11 39 11
15 0 28 5 28 10 0 23 21 8 34 -25 8 -19 21 -35 28 -35 9 0 9 3 -2 10 -10 6
-11 10 -2 10 6 0 12 5 12 10 0 6 -6 10 -14 10 -10 0 -14 9 -12 28 2 15 5 38 6
52 1 20 3 21 8 8 5 -13 11 -15 22 -8 10 6 11 10 3 10 -9 0 -6 11 7 35 11 20
20 47 20 61 0 13 7 27 15 30 8 4 15 12 15 20 0 8 8 14 18 15 10 0 12 3 4 6
-15 6 -6 23 12 23 8 0 15 -14 18 -34z"/>
<path d="M7185 8260 c-3 -5 -15 -10 -26 -10 -10 0 -19 -7 -19 -15 0 -17 40
-29 76 -22 15 3 23 0 21 -7 -2 -6 -25 -12 -50 -14 -36 -2 -47 -7 -47 -20 1
-31 28 -55 61 -54 29 1 31 -1 27 -31 -3 -18 -8 -40 -13 -49 -6 -14 -2 -18 16
-18 13 0 30 -4 38 -9 16 -10 61 25 61 48 0 13 2 13 9 2 9 -14 51 -7 51 10 0
36 -68 112 -127 143 -18 9 -33 21 -33 26 0 6 -3 9 -7 9 -20 -3 -26 2 -13 11
13 8 13 10 -2 10 -9 0 -20 -4 -23 -10z"/>
<path d="M3515 1779 c-43 -33 -138 -130 -132 -135 2 -2 12 5 21 15 17 18 20
19 42 5 l23 -16 -21 -29 c-12 -16 -30 -29 -40 -29 -14 0 -18 -6 -16 -26 2 -16
-3 -29 -11 -32 -10 -3 -12 1 -8 17 3 14 1 21 -6 18 -7 -2 -12 -12 -12 -23 0
-10 -8 -22 -17 -26 -18 -7 -108 -117 -108 -132 0 -4 11 -1 25 8 31 20 36 20
28 -1 -4 -11 -3 -14 6 -9 7 4 9 16 5 28 -4 14 2 29 22 49 32 34 41 36 46 12 5
-23 -20 -63 -38 -63 -8 0 -14 -4 -14 -10 0 -5 5 -10 11 -10 6 0 8 -9 4 -20 -3
-11 -2 -20 3 -20 9 0 20 20 44 78 7 18 18 30 25 27 7 -2 13 3 13 11 0 8 5 12
10 9 6 -4 10 7 10 25 0 18 12 49 29 74 16 23 33 59 37 80 6 37 6 38 -17 27
l-24 -12 24 18 c13 10 31 18 40 18 9 0 17 9 19 20 3 11 10 24 18 28 14 8 20
58 7 56 -5 0 -26 -14 -48 -30z"/>
<path d="M7680 1334 c-19 -19 -41 -34 -48 -34 -8 0 -10 -5 -6 -12 5 -7 2 -9
-8 -6 -11 5 -14 -3 -12 -41 1 -25 -3 -54 -8 -65 -9 -17 -7 -18 18 -12 16 4 35
13 42 19 8 6 20 12 28 13 29 4 103 60 104 77 0 14 -5 17 -21 12 -26 -9 -39 8
-39 53 0 39 -6 39 -50 -4z"/>
<path d="M9173 1201 c10 -4 18 -11 18 -16 0 -6 16 -11 37 -11 62 -2 64 -3 60
-26 -2 -19 -8 -22 -32 -20 l-30 3 24 -19 24 -19 -22 -7 c-26 -9 -28 -21 -5
-30 14 -6 14 -8 -3 -21 -16 -12 -17 -17 -6 -34 11 -19 10 -21 -8 -21 -11 0
-20 5 -20 10 0 6 -11 3 -23 -7 -19 -14 -21 -20 -12 -30 13 -12 44 -9 83 10 32
15 46 -3 47 -61 0 -34 4 -48 16 -50 13 -2 15 6 12 55 -3 32 -5 84 -6 116 -1
39 -7 61 -17 67 -12 7 -12 12 -2 22 6 6 12 21 12 33 0 22 -43 68 -54 58 -10
-11 -66 -12 -66 -2 0 5 -10 9 -22 8 -20 0 -21 -1 -5 -8z"/>
</g>
</svg>
