<?xml version="1.0" ?>
<!DOCTYPE svg PUBLIC '-//W3C//DTD SVG 1.1//EN' 'http://www.w3.org/Graphics/SVG/1.1/DTD/svg11.dtd'>
<svg height="512px" style="enable-background:new 0 0 512 512;" version="1.1" viewBox="0 0 512 512" width="512px" xml:space="preserve" xmlns="http://www.w3.org/2000/svg" xmlns:xlink="http://www.w3.org/1999/xlink">
  <g id="_x31_65_x2C__Birdhouse_x2C__Tweet_x2C__Twitter">
    <g id="XMLID_5037_">
      <g id="XMLID_5038_">
        <path d="M256,330L256,330c-8.1,0-15.96-1.59-23.36-4.72c-7.14-3.021-13.56-7.341-19.07-12.851c-5.5-5.51-9.83-11.93-12.85-19.07     C197.59,285.96,196,278.1,196,270c0-8.101,1.59-15.96,4.72-23.35c3.02-7.15,7.35-13.57,12.85-19.07     c5.51-5.51,11.93-9.84,19.07-12.86c7.4-3.13,15.26-4.72,23.36-4.72c8.1,0,15.96,1.59,23.35,4.72     c7.15,3.02,13.57,7.35,19.08,12.86c5.5,5.5,9.83,11.92,12.851,19.07c3.13,7.39,4.72,15.25,4.72,23.35     c0,8.1-1.59,15.96-4.72,23.359c-3.021,7.141-7.351,13.561-12.851,19.07c-5.51,5.51-11.93,9.83-19.08,12.851     C271.96,328.41,264.1,330,256,330z M256,230c-10.67,0.01-20.72,4.17-28.28,11.72C220.17,249.28,216,259.33,216,270     s4.17,20.72,11.72,28.28C235.28,305.83,245.33,310,256,310c10.67,0,20.72-4.17,28.28-11.72c7.55-7.561,11.71-17.61,11.72-28.28     c-0.01-10.67-4.17-20.72-11.72-28.28C276.72,234.17,266.67,230.01,256,230L256,230z" />
      </g>
      <g id="XMLID_5039_">
        <path d="M340,438.5H173c-8.7,0-16.91-3.36-23.11-9.44c-6.2-6.09-9.71-14.21-9.88-22.89l-14.77-119.18     c-0.67-5.471,3.23-10.471,8.7-11.15c0.41-0.05,0.83-0.08,1.24-0.08c5.03,0,9.29,3.78,9.91,8.78l14.83,119.729l0.08,1.23     c0.01,7.16,5.84,12.99,13,13h167c7.16-0.01,12.99-5.84,13-13l0.08-1.22L370.3,265.27c0.61-5,4.87-8.77,9.9-8.77     c0.42,0,0.83,0.03,1.25,0.08c2.649,0.33,5.01,1.67,6.649,3.77c1.65,2.11,2.37,4.73,2.04,7.38L372.99,406.18     c-0.171,8.67-3.681,16.8-9.881,22.88C356.91,435.14,348.7,438.5,340,438.5z M410.38,254.05c-5.521,0-10-4.48-10-10     c0-5.51,4.479-10,10-10c5.51,0,9.99,4.49,9.99,10C420.37,249.57,415.89,254.05,410.38,254.05z M122.03,254.05     c-5.51,0-9.99-4.48-9.99-10c0-5.51,4.48-10,9.99-10c5.52,0,10.01,4.49,10.01,10C132.04,249.57,127.55,254.05,122.03,254.05z      M72.38,251.81c-1.55,0-3.05-0.35-4.44-1.04c-5.33-2.67-9.79-6.76-12.91-11.83c-3.09-5.02-4.73-10.8-4.75-16.72     c-0.01-6,1.73-11.9,5.04-17.05c0.71-1.13,1.59-2.04,2.68-2.8L229.55,81.86c7.79-5.47,16.93-8.36,26.44-8.36h0.02     c9.51,0,18.65,2.89,26.43,8.36L454,202.37c1.09,0.76,1.97,1.68,2.689,2.8c3.301,5.15,5.04,11.05,5.03,17.05     c0,1.87-0.17,3.74-0.5,5.58v0.01c-0.87,4.76-5,8.22-9.83,8.22c-0.59,0-1.189-0.05-1.78-0.16c-4.779-0.86-8.239-4.99-8.229-9.84     c0-0.59,0.05-1.18,0.16-1.77c0.12-0.67,0.18-1.36,0.18-2.04c-0.01-1.7-0.36-3.27-1.07-4.79L270.95,98.22     c-4.4-3.09-9.57-4.72-14.95-4.72c-5.38,0-10.55,1.63-14.95,4.72L71.35,217.43c-0.71,1.53-1.06,3.09-1.07,4.79     c-0.04,4.38,2.66,8.75,6.55,10.64c4.94,2.45,6.96,8.46,4.51,13.4C79.64,249.68,76.2,251.81,72.38,251.81z" />
      </g>
    </g>
  </g>
  <g id="Layer_1" />
</svg>