<svg id="Capa_1" enable-background="new 0 0 551.13 551.13" height="26" viewBox="0 0 551.13 551.13" width="26" xmlns="http://www.w3.org/2000/svg">
  <path id="path-1_20_" d="m275.565 137.783c-37.995 0-68.891-30.897-68.891-68.891 0-37.995 30.897-68.892 68.891-68.892 37.995 0 68.891 30.897 68.891 68.891 0 37.995-30.896 68.892-68.891 68.892zm0-103.337c-18.989 0-34.446 15.457-34.446 34.446s15.457 34.446 34.446 34.446 34.446-15.457 34.446-34.446-15.457-34.446-34.446-34.446z" transform="translate(6)" />
  <path id="path-1_19_" d="m275.565 344.456c-37.995 0-68.891-30.897-68.891-68.891 0-37.995 30.897-68.891 68.891-68.891 37.995 0 68.891 30.897 68.891 68.891 0 37.995-30.896 68.891-68.891 68.891zm0-103.337c-18.989 0-34.446 15.457-34.446 34.446s15.457 34.446 34.446 34.446 34.446-15.457 34.446-34.446-15.457-34.446-34.446-34.446z" transform="translate(6 6)" />
  <path id="path-1_18_" d="m275.565 551.13c-37.995 0-68.891-30.897-68.891-68.891 0-37.995 30.897-68.891 68.891-68.891 37.995 0 68.891 30.897 68.891 68.891s-30.896 68.891-68.891 68.891zm0-103.337c-18.989 0-34.446 15.457-34.446 34.446s15.457 34.446 34.446 34.446 34.446-15.457 34.446-34.446-15.457-34.446-34.446-34.446z" transform="translate(6 12)" />
</svg>